<svg width="18" height="18" viewBox="0 0 18 18" fill="none" xmlns="http://www.w3.org/2000/svg">
<path d="M9 2.25C6.92894 2.25 5.25 3.92894 5.25 6C5.25 7.44899 6.07181 8.706 7.27475 9.33045C6.26743 9.71985 5.39666 10.411 4.72527 11.1721C3.70648 12.3269 3 13.8091 3 15L3.75 15.75H14.25L15 15C15 13.8091 14.2935 12.3269 13.2747 11.1721C12.6033 10.411 11.7325 9.71985 10.7252 9.33045C11.9282 8.706 12.75 7.44899 12.75 6C12.75 3.92894 11.071 2.25 9 2.25ZM12.1499 12.1644C12.7603 12.8563 13.1728 13.6172 13.3687 14.25H4.6313C4.82725 13.6172 5.23974 12.8563 5.8501 12.1644C6.71948 11.179 7.8438 10.5 9 10.5C10.1562 10.5 11.2805 11.179 12.1499 12.1644ZM9 8.25C7.75733 8.25 6.75 7.24264 6.75 6C6.75 4.75736 7.75733 3.75 9 3.75C10.2427 3.75 11.25 4.75736 11.25 6C11.25 7.24264 10.2427 8.25 9 8.25Z" fill="#00CCBC"/>
</svg>
